#define icon_width 15
#define icon_height 15
static unsigned char icon_bits[] = {
   0x00, 0x00, 0x00, 0x00, 0xfc, 0x1f, 0x1c, 0x1c, 0xfc, 0x1f, 0x34, 0x16,
   0xd4, 0x15, 0x54, 0x15, 0xd4, 0x15, 0x34, 0x16, 0xfc, 0x1f, 0x1c, 0x1c,
   0xfc, 0x1f, 0x00, 0x00, 0x00, 0x00 };
